<svg xmlns="http://www.w3.org/2000/svg" xmlns:lucid="lucid" width="219.33" height="291.33"><g lucid:page-tab-id="0_0"><path d="M-184-73.33h500v500h-500z" fill="#fff"/><path d="M54.27 37.53c0 9.7-7.67 17.54-17.14 17.54-9.46 0-17.13-7.85-17.13-17.54C20 27.85 27.67 20 37.13 20c9.47 0 17.14 7.85 17.14 17.53zM137.65 87.8c0 9.7-7.67 17.54-17.13 17.54-9.46 0-17.14-7.85-17.14-17.54 0-9.68 7.68-17.53 17.14-17.53s17.13 7.85 17.13 17.53z" stroke="#3a414a"/><path d="M137.65 157.94c0 9.7-7.67 17.54-17.13 17.54-9.46 0-17.14-7.85-17.14-17.54 0-9.68 7.68-17.53 17.14-17.53s17.13 7.86 17.13 17.54z" stroke="#3a414a" fill="#fcce14"/><path d="M199.33 202.36c0 9.7-7.67 17.54-17.13 17.54-9.46 0-17.13-7.85-17.13-17.54 0-9.68 7.67-17.53 17.13-17.53 9.46 0 17.13 7.85 17.13 17.53zM137.65 253.8c0 9.68-7.67 17.53-17.13 17.53-9.46 0-17.14-7.85-17.14-17.53 0-9.7 7.68-17.54 17.14-17.54s17.13 7.85 17.13 17.54z" stroke="#3a414a"/><path d="M102.38 87.8H43.13a6 6 0 0 1-6-6v-9.84" stroke="#3a414a" fill="none"/><path d="M102.88 87.8l.06.5h-.57v-1h.57z" stroke="#3a414a" stroke-width=".05" fill="#3a414a"/><path d="M37.13 57.2l4.64 14.26H32.5z" stroke="#3a414a" fill="#3a414a"/><path d="M102.38 157.94H43.13a6 6 0 0 1-6-6V71.96" stroke="#3a414a" fill="none"/><path d="M102.88 157.94l.06.5h-.57v-1h.57z" stroke="#3a414a" stroke-width=".05" fill="#3a414a"/><path d="M37.13 57.2l4.64 14.26H32.5z" stroke="#3a414a" fill="#3a414a"/><path d="M164.06 202.36h-37.54a6 6 0 0 1-6-6v-4" stroke="#3a414a" fill="none"/><path d="M164.56 202.36l.07.5h-.58v-1h.58z" stroke="#3a414a" stroke-width=".05" fill="#3a414a"/><path d="M120.52 177.6l4.63 14.26h-9.27z" stroke="#3a414a" fill="#3a414a"/><path d="M102.38 253.8H43.13a6 6 0 0 1-6-6V71.96" stroke="#3a414a" fill="none"/><path d="M102.88 253.8l.06.5h-.57v-1h.57z" stroke="#3a414a" stroke-width=".05" fill="#3a414a"/><path d="M37.13 57.2l4.64 14.26H32.5z" stroke="#3a414a" fill="#3a414a"/></g></svg>